<svg width="169" height="43" viewBox="0 0 169 43" fill="none" xmlns="http://www.w3.org/2000/svg">
<g filter="url(#filter0_d_411_1517)">
<path d="M27 26.18V19.6L21 9.26001H25.52L29 15.76L32.48 9.26001H37L31 19.6V26.18H27Z" fill="white"/>
<path d="M41.5184 13.28C42.5318 13.28 43.4384 13.4267 44.2384 13.72C45.0518 14.0133 45.7384 14.4133 46.2984 14.92C46.8584 15.4133 47.2851 15.9933 47.5784 16.66C47.8851 17.3133 48.0384 18.0067 48.0384 18.74V21C48.0384 21.7867 47.8851 22.5133 47.5784 23.18C47.2851 23.8333 46.8584 24.4067 46.2984 24.9C45.7384 25.3933 45.0518 25.7733 44.2384 26.04C43.4384 26.32 42.5318 26.46 41.5184 26.46C40.5051 26.46 39.5918 26.32 38.7784 26.04C37.9784 25.7733 37.2984 25.3933 36.7384 24.9C36.1784 24.4067 35.7451 23.8333 35.4384 23.18C35.1451 22.5133 34.9984 21.7867 34.9984 21V18.74C34.9984 18.0067 35.1451 17.3133 35.4384 16.66C35.7451 15.9933 36.1784 15.4133 36.7384 14.92C37.2984 14.4133 37.9784 14.0133 38.7784 13.72C39.5918 13.4267 40.5051 13.28 41.5184 13.28ZM41.5184 14.18C41.4784 16.0467 41.0651 17.4533 40.2784 18.4C39.4918 19.3333 38.2384 19.82 36.5184 19.86C38.2384 19.9133 39.4918 20.4333 40.2784 21.42C41.0651 22.3933 41.4784 23.7667 41.5184 25.54C41.5451 23.7533 41.9518 22.3733 42.7384 21.4C43.5251 20.4133 44.7851 19.8933 46.5184 19.84C44.7851 19.8 43.5251 19.3133 42.7384 18.38C41.9518 17.4467 41.5451 16.0467 41.5184 14.18Z" fill="white"/>
<path d="M54.8767 26.04C53.1034 26.3867 51.7367 26.18 50.7767 25.42C49.8301 24.6733 49.3567 23.3733 49.3567 21.52V13.56H53.2767V21.12C53.2767 22.7333 54.0101 23.3467 55.4767 22.96L57.1567 22.52V13.56H61.0767V26.18H57.1567V25.6L54.8767 26.04Z" fill="white"/>
<path d="M68.8789 13.72C70.6522 13.3733 72.0122 13.58 72.9589 14.34C73.9189 15.0867 74.3989 16.3867 74.3989 18.24V26.18H70.4789V18.64C70.4789 17.0267 69.7456 16.4133 68.2789 16.8L66.5989 17.24V26.18H62.6789V13.56H66.5989V14.16L68.8789 13.72Z" fill="white"/>
<path d="M75.9211 13.56H79.8411V26.18H75.9211V13.56Z" fill="white"/>
<path d="M90.2484 26.18H84.8484L80.6484 13.56H84.7284L86.6284 19.46C86.7751 19.9533 86.9284 20.46 87.0884 20.98C87.2484 21.5 87.4018 22.0133 87.5484 22.52C87.6818 22.0133 87.8284 21.5 87.9884 20.98C88.1618 20.46 88.3218 19.9533 88.4684 19.46L90.3684 13.56H94.4484L90.2484 26.18Z" fill="white"/>
<path d="M98.7817 21.34C98.7817 21.7 98.8484 22.02 98.9817 22.3C99.1151 22.5667 99.2951 22.7933 99.5217 22.98C99.7617 23.1533 100.028 23.2867 100.322 23.38C100.628 23.4733 100.948 23.52 101.282 23.52C102.002 23.52 102.562 23.44 102.962 23.28C103.375 23.1067 103.582 22.86 103.582 22.54V22.16H107.502V22.74C107.502 23.2733 107.342 23.7667 107.022 24.22C106.715 24.6733 106.282 25.0667 105.722 25.4C105.175 25.7333 104.522 25.9933 103.762 26.18C103.002 26.3667 102.175 26.46 101.282 26.46C100.362 26.46 99.5084 26.3267 98.7217 26.06C97.9484 25.8067 97.2751 25.44 96.7017 24.96C96.1284 24.4933 95.6751 23.94 95.3417 23.3C95.0217 22.6467 94.8617 21.9267 94.8617 21.14V18.74C94.8617 17.9133 95.0217 17.1667 95.3417 16.5C95.6751 15.82 96.1284 15.2467 96.7017 14.78C97.2751 14.3 97.9484 13.9333 98.7217 13.68C99.5084 13.4133 100.362 13.28 101.282 13.28C102.202 13.28 103.048 13.4133 103.822 13.68C104.608 13.9333 105.288 14.3 105.862 14.78C106.435 15.2467 106.882 15.82 107.202 16.5C107.535 17.1667 107.702 17.9133 107.702 18.74V21.26H98.7817V21.34ZM101.482 14.22C101.455 14.78 101.302 15.2533 101.022 15.64C100.755 16.0267 100.415 16.34 100.002 16.58C99.6017 16.82 99.1551 17 98.6617 17.12C98.1817 17.2267 97.7017 17.2867 97.2217 17.3C97.715 17.3133 98.2084 17.3867 98.7017 17.52C99.2084 17.6533 99.6684 17.8533 100.082 18.12C100.495 18.3867 100.828 18.72 101.082 19.12C101.348 19.52 101.482 20 101.482 20.56C101.482 20 101.602 19.52 101.842 19.12C102.082 18.72 102.395 18.3867 102.782 18.12C103.182 17.84 103.622 17.6333 104.102 17.5C104.595 17.3667 105.082 17.2933 105.562 17.28C105.095 17.2667 104.622 17.2067 104.142 17.1C103.675 16.98 103.248 16.8 102.862 16.56C102.475 16.32 102.155 16.0133 101.902 15.64C101.648 15.2533 101.508 14.78 101.482 14.22Z" fill="white"/>
<path d="M113.025 15.76C113.131 15.48 113.278 15.2067 113.465 14.94C113.651 14.6733 113.871 14.44 114.125 14.24C114.391 14.0267 114.691 13.86 115.025 13.74C115.358 13.62 115.738 13.56 116.165 13.56H116.945V16.96H116.425C115.998 16.96 115.598 17.0467 115.225 17.22C114.851 17.38 114.511 17.6133 114.205 17.92C113.911 18.2267 113.658 18.5933 113.445 19.02C113.245 19.4333 113.105 19.8933 113.025 20.4V26.18H109.105V13.56H113.025V15.76Z" fill="white"/>
<path d="M123.332 26.52C122.359 26.48 121.492 26.3333 120.732 26.08C119.986 25.8267 119.359 25.4933 118.852 25.08C118.346 24.68 117.972 24.2067 117.732 23.66C117.506 23.1133 117.432 22.5267 117.512 21.9H121.112C121.059 22.14 121.099 22.3533 121.232 22.54C121.366 22.7267 121.546 22.8933 121.772 23.04C121.999 23.1733 122.259 23.28 122.552 23.36C122.859 23.4267 123.152 23.4667 123.432 23.48C124.099 23.5067 124.619 23.42 124.992 23.22C125.366 23.0067 125.552 22.76 125.552 22.48C125.552 22.28 125.432 22.1133 125.192 21.98C124.966 21.8333 124.699 21.7067 124.392 21.6L120.872 20.44C119.966 20.1333 119.252 19.7 118.732 19.14C118.226 18.5667 117.972 17.8733 117.972 17.06C117.972 16.4333 118.119 15.8867 118.412 15.42C118.719 14.94 119.126 14.5467 119.632 14.24C120.139 13.92 120.726 13.68 121.392 13.52C122.072 13.36 122.792 13.28 123.552 13.28C124.312 13.28 125.026 13.3867 125.692 13.6C126.359 13.8 126.932 14.08 127.412 14.44C127.892 14.7867 128.252 15.2 128.492 15.68C128.732 16.16 128.806 16.68 128.712 17.24H125.312C125.326 17.04 125.279 16.8733 125.172 16.74C125.079 16.5933 124.946 16.48 124.772 16.4C124.599 16.3067 124.399 16.24 124.172 16.2C123.959 16.16 123.746 16.14 123.532 16.14C123.079 16.14 122.692 16.2 122.372 16.32C122.052 16.44 121.892 16.5933 121.892 16.78C121.892 16.9667 121.972 17.12 122.132 17.24C122.292 17.36 122.546 17.4933 122.892 17.64L126.872 19.06C127.259 19.2067 127.619 19.38 127.952 19.58C128.286 19.7667 128.572 20 128.812 20.28C129.052 20.5467 129.232 20.86 129.352 21.22C129.472 21.58 129.519 21.9933 129.492 22.46C129.452 23.06 129.272 23.6133 128.952 24.12C128.632 24.64 128.199 25.08 127.652 25.44C127.119 25.8133 126.486 26.0933 125.752 26.28C125.019 26.48 124.212 26.56 123.332 26.52Z" fill="white"/>
<path d="M134.348 21.34C134.348 21.7 134.415 22.02 134.548 22.3C134.681 22.5667 134.861 22.7933 135.088 22.98C135.328 23.1533 135.595 23.2867 135.888 23.38C136.195 23.4733 136.515 23.52 136.848 23.52C137.568 23.52 138.128 23.44 138.528 23.28C138.941 23.1067 139.148 22.86 139.148 22.54V22.16H143.068V22.74C143.068 23.2733 142.908 23.7667 142.588 24.22C142.281 24.6733 141.848 25.0667 141.288 25.4C140.741 25.7333 140.088 25.9933 139.328 26.18C138.568 26.3667 137.741 26.46 136.848 26.46C135.928 26.46 135.075 26.3267 134.288 26.06C133.515 25.8067 132.841 25.44 132.268 24.96C131.695 24.4933 131.241 23.94 130.908 23.3C130.588 22.6467 130.428 21.9267 130.428 21.14V18.74C130.428 17.9133 130.588 17.1667 130.908 16.5C131.241 15.82 131.695 15.2467 132.268 14.78C132.841 14.3 133.515 13.9333 134.288 13.68C135.075 13.4133 135.928 13.28 136.848 13.28C137.768 13.28 138.615 13.4133 139.388 13.68C140.175 13.9333 140.855 14.3 141.428 14.78C142.001 15.2467 142.448 15.82 142.768 16.5C143.101 17.1667 143.268 17.9133 143.268 18.74V21.26H134.348V21.34ZM137.048 14.22C137.021 14.78 136.868 15.2533 136.588 15.64C136.321 16.0267 135.981 16.34 135.568 16.58C135.168 16.82 134.721 17 134.228 17.12C133.748 17.2267 133.268 17.2867 132.788 17.3C133.281 17.3133 133.775 17.3867 134.268 17.52C134.775 17.6533 135.235 17.8533 135.648 18.12C136.061 18.3867 136.395 18.72 136.648 19.12C136.915 19.52 137.048 20 137.048 20.56C137.048 20 137.168 19.52 137.408 19.12C137.648 18.72 137.961 18.3867 138.348 18.12C138.748 17.84 139.188 17.6333 139.668 17.5C140.161 17.3667 140.648 17.2933 141.128 17.28C140.661 17.2667 140.188 17.2067 139.708 17.1C139.241 16.98 138.815 16.8 138.428 16.56C138.041 16.32 137.721 16.0133 137.468 15.64C137.215 15.2533 137.075 14.78 137.048 14.22Z" fill="white"/>
<path d="M77.9355 12.72C77.8715 11.4613 77.5942 10.5973 77.1035 10.128C76.6129 9.65867 75.8449 9.40267 74.7995 9.36C75.8449 9.31733 76.6129 9.06133 77.1035 8.592C77.5942 8.12267 77.8715 7.25867 77.9355 6C77.9995 7.25867 78.2662 8.12267 78.7355 8.592C79.2262 9.06133 80.0049 9.31733 81.0715 9.36C80.0049 9.40267 79.2262 9.65867 78.7355 10.128C78.2662 10.5973 77.9995 11.4613 77.9355 12.72Z" fill="white"/>
</g>
<g filter="url(#filter1_d_411_1517)">
<path d="M23.5 18.7461C11.9637 21.1031 7 24.1599 7 27.5C7 34.9559 41.6979 36 84.5 36C127.302 36 162 34.9559 162 27.5C162 24.1599 157.536 21.1031 146 18.7461" stroke="white" stroke-width="1.5" stroke-linecap="round"/>
</g>
<defs>
<filter id="filter0_d_411_1517" x="15" y="0" width="134.27" height="32.5303" filterUnits="userSpaceOnUse" color-interpolation-filters="sRGB">
<feFlood flood-opacity="0" result="BackgroundImageFix"/>
<feColorMatrix in="SourceAlpha" type="matrix" values="0 0 0 0 0 0 0 0 0 0 0 0 0 0 0 0 0 0 127 0" result="hardAlpha"/>
<feOffset/>
<feGaussianBlur stdDeviation="3"/>
<feComposite in2="hardAlpha" operator="out"/>
<feColorMatrix type="matrix" values="0 0 0 0 1 0 0 0 0 1 0 0 0 0 1 0 0 0 0.7 0"/>
<feBlend mode="normal" in2="BackgroundImageFix" result="effect1_dropShadow_411_1517"/>
<feBlend mode="normal" in="SourceGraphic" in2="effect1_dropShadow_411_1517" result="shape"/>
</filter>
<filter id="filter1_d_411_1517" x="0.25" y="11.9961" width="168.5" height="30.7539" filterUnits="userSpaceOnUse" color-interpolation-filters="sRGB">
<feFlood flood-opacity="0" result="BackgroundImageFix"/>
<feColorMatrix in="SourceAlpha" type="matrix" values="0 0 0 0 0 0 0 0 0 0 0 0 0 0 0 0 0 0 127 0" result="hardAlpha"/>
<feOffset/>
<feGaussianBlur stdDeviation="3"/>
<feComposite in2="hardAlpha" operator="out"/>
<feColorMatrix type="matrix" values="0 0 0 0 1 0 0 0 0 1 0 0 0 0 1 0 0 0 0.7 0"/>
<feBlend mode="normal" in2="BackgroundImageFix" result="effect1_dropShadow_411_1517"/>
<feBlend mode="normal" in="SourceGraphic" in2="effect1_dropShadow_411_1517" result="shape"/>
</filter>
</defs>
</svg>
